<?xml version="1.0" encoding="UTF-8"?>
<svg width="197px" height="30px" viewBox="0 0 197 30" version="1.1" xmlns="http://www.w3.org/2000/svg" xmlns:xlink="http://www.w3.org/1999/xlink">
    <!-- Generator: Sketch 61.2 (89653) - https://sketch.com -->
    <title>164*92</title>
    <desc>Created with Sketch.</desc>
    <g id="Page-1" stroke="none" stroke-width="1" fill="none" fill-rule="evenodd">
        <g id="Extra-large:-Desktops---12-col" transform="translate(-165.000000, -27.000000)" fill-rule="nonzero">
            <g id="164*92" transform="translate(165.000000, 27.000000)">
                <path d="M5.44045161,29.7109414 C6.02767496,29.0092892 6.32128663,27.0193578 6.32128663,23.7411472 L6.32128663,23.7066396 L6.28674407,22.222818 C6.25220153,20.1638716 6.23493025,19.1113934 6.23493025,19.0653834 C6.23493025,18.2257014 6.79912523,17.8058604 7.9275152,17.8058604 L7.9275152,29.6764339 L13.3679668,29.6764339 L13.3679668,4.93456982 L6.64944085,4.93456982 C5.11805447,4.93456982 3.78528776,5.28539588 2.6511407,5.987048 C1.51699365,6.68870012 0.949920121,7.79869078 0.949920121,9.31701995 L0.949920121,12.2846634 C0.949920121,14.2055798 2.07255299,15.5053616 4.31781873,16.1840087 C2.06103881,16.7131235 0.932648846,18.0761689 0.932648846,20.2731452 L1.01900522,22.9819825 C1.01900522,26.9388404 0.679336814,29.1818267 0,29.7109414 L5.44045161,29.7109414 Z M7.9275152,14.8037095 C6.79912523,14.8037095 6.23493025,14.3666147 6.23493025,13.4924252 L6.23493025,9.4205424 C6.23493025,8.55785536 6.79912523,8.12651184 7.9275152,8.12651184 L7.9275152,14.8037095 Z" id="Я" fill="#BE0B39"></path>
                <path d="M21.4681948,29.6764339 C22.9420103,29.6764339 24.211449,29.270971 25.2765108,28.4600452 C26.3415728,27.6491194 26.8741038,26.4269795 26.8741038,24.7936253 L26.8741038,24.7936253 L26.8741038,19.9970854 C26.8741038,18.1681889 25.7572281,16.9776808 23.5234764,16.4255611 C25.6420861,15.7124065 26.7013911,14.4873908 26.7013911,12.7505143 L26.7013911,12.7505143 L26.7013911,9.31701995 C26.7013911,7.78718828 26.137196,6.67432201 25.0088061,5.97842113 C23.8804162,5.28252026 22.550528,4.93456982 21.0191416,4.93456982 L21.0191416,4.93456982 L14.6114986,4.93456982 L14.6114986,29.6764339 L21.4681948,29.6764339 Z M20.0519502,14.9417394 L20.0519502,8.12651184 C21.0651983,8.12651184 21.5718224,8.55785536 21.5718224,9.4205424 L21.5718224,9.4205424 L21.5718224,13.6304551 C21.5718224,14.5046447 21.0651983,14.9417394 20.0519502,14.9417394 L20.0519502,14.9417394 Z M20.0519502,26.5017456 L20.0519502,17.633323 C21.0651983,17.633323 21.5718224,18.0646664 21.5718224,18.9273535 L21.5718224,18.9273535 L21.5718224,25.1904613 C21.5718224,26.0646509 21.0651983,26.5017456 20.0519502,26.5017456 L20.0519502,26.5017456 Z" id="В" fill="#015D85"></path>
                <path d="M49.1195059,29.6764339 L49.1195059,4.93456982 L43.8172246,4.93456982 L43.8172246,25.7943422 L41.2438046,25.7943422 L41.2438046,4.93456982 L35.9415231,4.93456982 L35.9415231,25.7943422 L33.3853745,25.7943422 L33.3853745,4.93456982 L28.0830931,4.93456982 L28.0830931,29.6764339 L49.1195059,29.6764339 Z M55.7862181,29.6764339 L55.7862181,19.9625779 L58.7914199,29.6764339 L64.5945683,29.6764339 L59.8104251,15.9252026 L61.623909,10.0244233 C61.9808487,8.85116896 62.6256429,8.26454177 63.5582917,8.26454177 L63.5582917,8.26454177 L63.5582917,4.96907731 C63.005611,4.83104738 62.1823469,4.76203242 61.0884995,4.76203242 C59.3268294,4.76203242 58.1811682,5.63622194 57.6515157,7.38460099 L57.6515157,7.38460099 L55.7862181,13.5614401 L55.7862181,4.93456982 L50.6911919,4.93456982 L50.6911919,29.6764339 L55.7862181,29.6764339 Z M71.364908,29.9007325 C73.2071773,29.9007325 74.7011427,29.5125234 75.8468039,28.736105 C76.9924652,27.9596867 77.5652958,26.8525717 77.5652958,25.4147599 L77.5652958,25.4147599 L77.5652958,9.48955735 C77.5652958,6.30336659 75.510014,4.7102712 71.3994506,4.7102712 C67.2313163,4.7102712 65.1472491,6.31486908 65.1472491,9.52406484 L65.1472491,9.52406484 L65.1472491,25.4492675 C65.1472491,28.4169108 67.2198021,29.9007325 71.364908,29.9007325 Z M71.364908,26.4499844 C70.7546563,26.4499844 70.4495305,26.2026808 70.4495305,25.7080735 L70.4495305,25.7080735 L70.4495305,8.85116896 C70.4495305,8.35656172 70.7546563,8.10925811 71.364908,8.10925811 C71.9521314,8.10925811 72.2457431,8.35656172 72.2457431,8.85116896 L72.2457431,8.85116896 L72.2457431,25.7080735 C72.2457431,26.2026808 71.9521314,26.4499844 71.364908,26.4499844 Z M81.7449442,29.9524938 C84.4853199,29.9524938 85.8555077,28.8942643 85.8555077,26.7778055 L85.8555077,26.7778055 L85.8555077,8.16101933 L87.7553479,8.16101933 L87.7553479,29.6764339 L93.0230868,29.6764339 L93.0230868,4.93456982 L80.7604817,4.93456982 L80.7604817,24.7936253 C80.7604817,25.5182824 80.7000321,25.9726309 80.5791332,26.1566708 C80.4582343,26.3407108 80.1962866,26.4327307 79.7932902,26.4327307 C79.3212087,26.4327307 78.900941,26.3579645 78.5324871,26.208432 L78.5324871,26.208432 L78.5324871,29.6764339 C79.4766502,29.8604738 80.5474692,29.9524938 81.7449442,29.9524938 Z M104.905724,29.6764339 L104.905724,26.5017456 L99.7070702,26.5017456 L99.7070702,17.8058604 L104.335772,17.8058604 L104.335772,14.8037095 L99.7070702,14.8037095 L99.7070702,8.12651184 L104.836639,8.12651184 L104.836639,4.93456982 L94.2666186,4.93456982 L94.2666186,29.6764339 L104.905724,29.6764339 Z" id="ШКОЛЕ" fill="#F39A18"></path>
                <polygon id="." fill="#7C39A6" points="110.173463 29.6764339 110.173463 26.0704021 105.682931 26.0704021 105.682931 29.6764339"></polygon>
                <path d="M117.410127,29.9007325 C119.252396,29.9007325 120.746362,29.5125234 121.892023,28.736105 C123.037685,27.9596867 123.610515,26.8525717 123.610515,25.4147599 L123.610515,25.4147599 L123.610515,9.48955735 C123.610515,6.30336659 121.555233,4.7102712 117.44467,4.7102712 C113.276535,4.7102712 111.192468,6.31486908 111.192468,9.52406484 L111.192468,9.52406484 L111.192468,25.4492675 C111.192468,28.4169108 113.265021,29.9007325 117.410127,29.9007325 Z M117.410127,26.4499844 C116.799875,26.4499844 116.49475,26.2026808 116.49475,25.7080735 L116.49475,25.7080735 L116.49475,8.85116896 C116.49475,8.35656172 116.799875,8.10925811 117.410127,8.10925811 C117.99735,8.10925811 118.290962,8.35656172 118.290962,8.85116896 L118.290962,8.85116896 L118.290962,25.7080735 C118.290962,26.2026808 117.99735,26.4499844 117.410127,26.4499844 Z M130.104514,29.6764339 L130.104514,17.8058604 L131.624386,17.8058604 L131.624386,29.6764339 L137.064838,29.6764339 L137.064838,4.93456982 L131.624386,4.93456982 L131.624386,14.8037095 L130.104514,14.8037095 L130.104514,4.93456982 L124.664062,4.93456982 L124.664062,29.6764339 L130.104514,29.6764339 Z M141.227215,29.9524938 C143.96759,29.9524938 145.337778,28.8942643 145.337778,26.7778055 L145.337778,26.7778055 L145.337778,8.16101933 L147.237619,8.16101933 L147.237619,29.6764339 L152.505358,29.6764339 L152.505358,4.93456982 L140.242753,4.93456982 L140.242753,24.7936253 C140.242753,25.5182824 140.182303,25.9726309 140.061404,26.1566708 C139.940506,26.3407108 139.678558,26.4327307 139.275561,26.4327307 C138.803479,26.4327307 138.383212,26.3579645 138.014759,26.208432 L138.014759,26.208432 L138.014759,29.6764339 C138.958921,29.8604738 140.029741,29.9524938 141.227215,29.9524938 Z M158.792102,29.6764339 L159.70748,23.0337438 L162.142729,23.0337438 L163.058107,29.6764339 L168.446744,29.6764339 L164.370723,4.93456982 L157.479485,4.93456982 L153.403464,29.6764339 L158.792102,29.6764339 Z M161.693676,19.6002493 L160.173804,19.6002493 L160.916469,12.2156484 L161.693676,19.6002493 Z M176.218818,4.10639028 C179.270077,4.10639028 180.933876,2.73759352 181.210217,0 L181.210217,0 L178.515897,0 C178.308642,1.18475686 177.542949,1.77713528 176.218818,1.77713528 C174.906201,1.77713528 174.140508,1.18475686 173.921738,0 L173.921738,0 L171.22742,0 C171.469218,2.73759352 173.133018,4.10639028 176.218818,4.10639028 Z M174.923472,29.6764339 L178.636796,16.494576 L178.636796,29.6764339 L183.179142,29.6764339 L183.179142,4.93456982 L177.324179,4.93456982 L173.869925,16.2185162 L173.869925,4.93456982 L169.344851,4.93456982 L169.344851,29.6764339 L174.923472,29.6764339 Z M189.690412,29.6764339 L189.690412,17.8058604 L191.210285,17.8058604 L191.210285,29.6764339 L196.650737,29.6764339 L196.650737,4.93456982 L191.210285,4.93456982 L191.210285,14.8037095 L189.690412,14.8037095 L189.690412,4.93456982 L184.249961,4.93456982 L184.249961,29.6764339 L189.690412,29.6764339 Z" id="ОНЛАЙН" fill="#4DBD70"></path>
            </g>
        </g>
    </g>
</svg>